<?xml version="1.0" standalone="no"?>
<!DOCTYPE svg PUBLIC "-//W3C//DTD SVG 20010904//EN"
 "http://www.w3.org/TR/2001/REC-SVG-20010904/DTD/svg10.dtd">
<svg version="1.0" xmlns="http://www.w3.org/2000/svg"
 width="296.000000pt" height="296.000000pt" viewBox="0 0 296.000000 296.000000"
 preserveAspectRatio="xMidYMid meet">
<metadata>
Created by potrace 1.14, written by Peter Selinger 2001-2017
</metadata>
<g transform="translate(0.000000,296.000000) scale(0.100000,-0.100000)"
fill="#000000" stroke="none">
<path d="M1390 2894 c-141 -26 -236 -68 -306 -136 -25 -23 -42 -31 -82 -33
-90 -6 -185 -74 -266 -189 -91 -128 -127 -227 -156 -430 -25 -171 -39 -222
-96 -348 -63 -136 -72 -189 -50 -270 9 -34 33 -90 53 -122 l36 -60 -11 -68
c-20 -114 -16 -167 18 -234 32 -65 68 -97 117 -108 l32 -7 -20 40 c-10 22 -19
45 -19 52 0 23 29 -12 56 -66 29 -61 26 -84 -13 -115 l-27 -21 22 -22 c32 -31
118 -31 160 0 l29 22 34 -52 c18 -29 59 -79 91 -111 31 -33 55 -62 53 -66 -6
-10 -74 -37 -137 -55 -64 -17 -110 -51 -127 -93 -10 -24 -21 -30 -70 -40 -63
-13 -126 -49 -126 -72 0 -17 154 -96 288 -149 111 -43 305 -94 337 -89 18 3
15 9 -26 68 -50 71 -114 191 -114 214 0 7 11 16 25 18 21 5 25 2 25 -20 0 -38
44 -105 89 -135 80 -53 153 -70 296 -70 246 0 405 76 405 194 0 33 2 36 25 31
14 -2 25 -10 25 -16 0 -21 -80 -179 -117 -229 -19 -27 -32 -51 -30 -53 9 -9
204 39 297 72 104 38 313 138 330 159 16 20 -52 62 -122 77 -48 10 -59 16 -69
40 -17 43 -63 75 -134 97 -54 17 -120 45 -133 56 -2 2 15 20 37 40 23 21 61
64 86 97 35 47 45 55 45 38 0 -21 3 -22 45 -17 88 13 155 64 196 152 16 33 29
70 29 83 0 20 3 22 39 16 67 -11 151 32 166 84 6 19 3 23 -12 22 -55 -6 -104
23 -116 70 -4 16 -2 17 20 9 33 -12 35 -10 23 32 -15 53 -12 97 16 189 31 104
32 181 4 275 -60 202 -72 252 -91 390 -24 173 -45 244 -99 335 -109 185 -264
309 -523 423 -179 79 -360 119 -457 101z m225 -94 c68 -17 220 -79 213 -85 -2
-2 -50 13 -108 33 -102 36 -110 37 -245 37 -127 -1 -146 -3 -205 -26 -36 -15
-74 -30 -85 -34 -11 -4 -3 4 17 19 38 27 116 61 158 69 64 12 182 6 255 -13z
m-10 -114 c50 -25 104 -57 120 -71 l30 -25 -37 20 c-127 72 -334 107 -448 77
-30 -9 -56 -14 -58 -12 -1 1 14 11 35 21 24 11 68 20 117 22 54 3 74 7 65 14
-10 6 2 8 36 4 30 -3 86 -24 140 -50z m-645 -64 c-44 -16 -44 -17 -15 -20 50
-6 47 -17 -6 -19 -27 -2 -66 -10 -86 -18 l-37 -16 24 27 c31 34 96 64 135 63
28 -1 27 -2 -15 -17z m415 -11 c12 -5 -10 -8 -55 -9 -41 0 -90 -5 -109 -11
-41 -13 -32 -1 12 16 36 13 122 15 152 4z m42 -86 c28 -15 57 -33 65 -42 10
-12 4 -11 -27 4 -47 24 -96 39 -148 47 -31 4 -38 2 -33 -9 3 -9 -1 -15 -10
-15 -8 0 -33 -9 -55 -21 -23 -11 -38 -15 -34 -9 4 6 17 15 29 20 17 7 18 9 3
9 -10 1 -15 6 -12 12 24 37 150 39 222 4z m-511 -40 c-27 -8 -62 -23 -78 -35
-15 -11 -28 -18 -28 -15 0 3 19 18 42 35 28 21 52 30 77 29 35 -1 35 -1 -13
-14z m29 -75 c3 -5 -2 -10 -12 -10 -30 0 -88 -46 -123 -97 -31 -46 -34 -30 -5
27 30 59 121 111 140 80z m439 0 c29 -11 116 -87 116 -102 0 -5 -27 14 -61 42
-33 27 -68 50 -77 50 -9 0 -24 5 -32 10 -12 8 -11 10 7 10 12 0 33 -4 47 -10z
m86 -208 c36 -37 114 -120 173 -185 59 -64 128 -131 153 -149 l45 -32 -61 -28
c-71 -32 -120 -81 -157 -158 l-26 -55 -73 0 -73 0 -16 42 c-9 24 -34 64 -56
90 -94 114 -257 143 -386 67 -50 -29 -116 -108 -133 -159 -16 -49 -44 -48 -36
3 3 20 10 120 17 222 13 212 19 232 103 315 37 37 66 56 107 68 81 26 172 36
269 32 l85 -4 65 -69z m-228 -408 c61 -20 117 -70 153 -135 27 -49 30 -63 30
-144 0 -105 -17 -145 -87 -210 l-43 -40 36 40 c111 121 116 279 14 393 -59 65
-116 92 -198 92 -83 0 -154 -35 -206 -100 -47 -59 -65 -120 -59 -202 5 -77 29
-130 85 -186 24 -24 35 -38 25 -33 -25 13 -77 73 -99 114 -26 46 -26 218 0
265 40 73 108 132 177 153 43 13 124 10 172 -7z m744 1 c64 -19 122 -68 159
-136 27 -49 30 -62 30 -149 0 -106 -9 -131 -72 -201 -36 -39 -99 -79 -125 -79
-7 0 10 11 37 24 63 30 97 66 131 140 23 51 26 68 22 130 -13 201 -200 323
-373 242 -56 -26 -119 -90 -143 -145 -21 -49 -20 -174 2 -224 20 -45 79 -113
121 -139 17 -10 25 -18 18 -18 -20 0 -96 64 -125 105 -45 67 -61 173 -38 255
15 56 65 126 109 156 82 54 157 66 247 39z m-748 -81 c47 -9 86 -24 99 -36 53
-50 74 -190 40 -269 -21 -52 -81 -114 -131 -138 -127 -62 -299 20 -337 162
-16 60 -6 157 22 206 13 24 26 37 30 30 5 -8 9 -8 14 1 13 21 109 60 148 60
21 0 73 -7 115 -16z m778 -8 c28 -13 55 -29 59 -36 6 -9 9 -9 15 0 12 20 51
-75 57 -139 14 -154 -96 -281 -243 -281 -124 1 -220 82 -243 205 -10 54 -4 56
68 19 92 -48 193 -42 280 16 l42 27 -45 40 c-52 46 -116 68 -196 67 -70 -1
-94 -14 -131 -72 l-29 -47 6 35 c10 59 33 116 57 138 26 24 126 50 202 51 33
1 67 -7 101 -23z m-179 -146 c-10 -25 -8 -34 9 -57 12 -16 34 -31 50 -35 18
-4 2 -6 -41 -5 -70 3 -165 36 -165 59 0 5 13 23 29 39 25 24 38 29 79 29 l50
0 -11 -30z m76 20 c6 0 4 -7 -5 -16 -18 -18 -38 -11 -38 13 0 10 6 13 16 9 9
-3 21 -6 27 -6z m-339 -6 c32 -12 15 -19 -49 -19 -61 0 -81 7 -52 18 18 8 83
8 101 1z m-734 -14 c0 -13 -90 -13 -110 0 -11 7 3 10 48 10 35 0 62 -4 62 -10z
m1475 0 c-3 -5 -26 -10 -50 -10 -24 0 -47 5 -50 10 -4 6 15 10 50 10 35 0 54
-4 50 -10z m-739 -38 c6 -4 14 -29 18 -56 14 -107 65 -182 165 -243 64 -39
185 -45 258 -13 100 43 193 176 193 275 0 48 17 44 31 -7 17 -64 5 -209 -34
-405 -38 -190 -66 -260 -141 -359 -63 -84 -245 -232 -254 -206 -2 6 -18 -7
-36 -31 -17 -23 -46 -52 -64 -64 -64 -42 -205 -56 -299 -28 -53 16 -137 81
-148 115 -4 11 -11 20 -17 20 -5 0 -7 -7 -4 -16 6 -15 3 -14 -21 1 -167 109
-282 237 -332 370 -50 134 -107 539 -87 619 11 46 33 31 39 -28 10 -96 83
-202 172 -248 56 -29 167 -36 233 -14 102 34 191 146 207 261 9 58 16 65 70
65 22 0 45 -4 51 -8z m418 -1 c3 -4 -3 -16 -14 -26 -19 -17 -19 -17 -7 9 14
29 14 29 21 17z m-1229 -321 l7 -45 -32 30 -33 30 19 -33 c10 -17 26 -34 35
-37 10 -3 20 -21 24 -41 13 -72 -21 -56 -76 34 l-37 61 36 77 37 78 6 -55 c3
-30 10 -74 14 -99z m1598 53 l30 -32 -50 -78 c-58 -89 -90 -109 -79 -47 5 22
18 45 32 56 13 11 29 29 35 41 9 18 5 16 -21 -8 l-33 -30 7 34 c3 19 9 59 13
88 6 52 6 53 21 31 8 -13 28 -37 45 -55z m-1073 12 c0 -7 -57 -35 -72 -35 -7
0 5 9 27 19 48 23 45 22 45 16z m-112 -42 c-16 -2 -40 -2 -55 0 -16 2 -3 4 27
4 30 0 43 -2 28 -4z m755 0 c-18 -2 -48 -2 -65 0 -18 2 -4 4 32 4 36 0 50 -2
33 -4z m-541 -888 c67 -19 210 -19 276 0 28 9 71 31 96 50 l44 34 6 -24 c4
-14 18 -27 36 -33 36 -13 39 -41 11 -88 -46 -75 -153 -109 -346 -108 -122 0
-147 3 -198 23 -66 26 -111 61 -132 102 -22 42 -18 59 15 71 22 7 33 19 37 38
l5 29 50 -39 c27 -22 72 -46 100 -55z"/>
<path d="M1175 1619 c-69 -10 -98 -22 -145 -65 l-41 -37 42 -28 c103 -68 210
-62 348 18 8 5 -50 93 -67 101 -27 15 -83 19 -137 11z m25 -49 c-13 -25 -5
-57 23 -87 l20 -23 -57 0 c-59 0 -112 17 -133 42 -11 12 -8 19 11 37 26 25 88
50 124 51 20 0 21 -3 12 -20z m78 3 c-2 -10 -12 -18 -23 -18 -11 0 -21 8 -23
18 -3 13 3 17 23 17 20 0 26 -4 23 -17z"/>
<path d="M1311 1166 c-7 -8 -15 -30 -18 -49 -4 -27 -1 -39 17 -57 13 -13 28
-19 38 -15 50 20 81 17 112 -9 39 -33 70 -33 108 -1 32 27 56 31 96 15 21 -8
31 -5 52 14 23 19 26 27 20 58 -4 20 -14 42 -23 49 -15 12 -16 12 -9 -6 29
-78 11 -105 -58 -85 -46 13 -70 7 -96 -24 -18 -23 -47 -20 -84 9 -37 28 -47
30 -93 13 -28 -10 -36 -10 -50 5 -14 14 -15 22 -5 54 13 41 11 50 -7 29z"/>
<path d="M1170 905 c-16 -20 0 -39 33 -41 12 -1 62 -9 112 -19 116 -22 287
-22 397 1 45 9 94 18 108 19 14 1 28 3 33 3 12 3 8 29 -8 42 -12 10 -21 9 -47
-3 -61 -28 -152 -41 -288 -41 -136 1 -281 23 -288 44 -5 15 -38 12 -52 -5z"/>
<path d="M1408 748 c9 -9 44 -13 102 -13 58 0 93 4 101 13 10 10 -10 12 -101
12 -91 0 -112 -3 -102 -12z"/>
</g>
</svg>
